<?xml version="1.0" encoding="UTF-8"?>
<!DOCTYPE svg PUBLIC "-//W3C//DTD SVG 1.1//EN" "http://www.w3.org/Graphics/SVG/1.1/DTD/svg11.dtd">
<svg width="300pt" height="300pt" viewBox="0 0 300 300" version="1.1" xmlns="http://www.w3.org/2000/svg">
<g id="#e20000ff">
<path fill="#e20000" opacity="1.00" d=" M 56.46 0.00 L 244.07 0.00 C 256.40 0.53 268.53 5.07 278.11 12.85 C 291.28 23.28 299.56 39.65 300.00 56.47 L 300.00 244.23 C 299.50 273.45 273.53 299.46 244.31 300.00 L 55.40 300.00 C 38.98 299.17 23.08 291.04 12.87 278.14 C 5.12 268.62 0.59 256.58 0.00 244.33 L 0.00 55.36 C 0.68 43.25 5.17 31.36 12.82 21.93 C 23.25 8.73 39.63 0.46 56.46 0.00 M 148.77 66.94 C 148.17 75.62 151.87 83.74 153.77 92.04 C 138.63 96.29 124.56 105.73 116.46 119.40 C 110.38 129.38 107.95 141.32 108.84 152.91 C 109.27 165.13 114.38 177.26 123.29 185.71 C 132.54 194.80 146.24 199.24 159.04 197.01 C 172.57 195.11 184.85 186.30 191.14 174.19 C 197.03 163.44 196.91 150.48 193.86 138.89 C 191.66 131.05 189.34 123.24 186.81 115.50 C 197.57 118.01 206.61 125.12 213.85 133.19 C 224.26 145.07 228.41 161.62 226.03 177.11 C 224.38 191.46 216.80 204.62 206.65 214.67 C 192.54 228.49 172.57 235.33 153.02 235.39 C 135.98 235.87 118.97 229.98 105.48 219.64 C 88.56 206.76 77.01 187.07 74.08 166.01 C 71.77 149.99 74.31 133.27 81.61 118.79 C 90.47 100.74 106.27 86.22 125.04 78.99 C 128.71 77.73 132.22 75.50 134.14 72.03 C 137.69 66.55 135.30 58.44 129.59 55.45 C 125.93 53.37 121.38 53.32 117.44 54.62 C 94.59 62.99 74.88 79.51 62.47 100.43 C 51.66 118.51 46.28 139.90 47.76 160.95 C 49.44 191.05 64.67 220.01 88.33 238.66 C 106.00 252.76 128.43 260.88 151.07 260.88 C 175.19 261.10 199.70 253.61 218.48 238.23 C 235.04 224.65 247.22 205.38 251.11 184.22 C 253.86 167.93 252.40 150.71 245.49 135.59 C 238.26 119.31 225.13 106.12 209.79 97.30 C 200.58 92.25 190.12 89.57 179.65 89.12 C 178.23 83.77 176.44 78.51 175.50 73.05 C 174.57 67.62 177.26 61.10 183.04 59.76 C 189.65 58.34 196.12 61.87 201.19 65.81 C 206.65 70.06 216.06 70.38 220.31 64.27 C 224.00 58.23 222.01 49.66 216.50 45.37 C 208.25 38.59 197.73 34.30 187.01 34.02 C 168.51 33.08 150.11 48.20 148.77 66.94 Z"/>
<path fill="#e20000" opacity="1.00" d=" M 135.71 138.80 C 138.98 127.39 149.57 119.87 160.44 116.47 C 163.72 126.67 166.93 136.90 169.72 147.24 C 170.85 152.70 170.79 158.79 167.66 163.62 C 162.66 172.26 149.50 175.06 141.93 168.17 C 133.82 160.98 132.93 148.68 135.71 138.80 Z"/>
</g>
<g id="#ffffffff">
<path fill="#ffffff" opacity="1.00" d=" M 148.77 66.94 C 150.11 48.20 168.51 33.08 187.01 34.02 C 197.73 34.30 208.25 38.59 216.50 45.37 C 222.01 49.66 224.00 58.23 220.31 64.27 C 216.06 70.38 206.65 70.06 201.19 65.81 C 196.12 61.87 189.65 58.34 183.04 59.76 C 177.26 61.10 174.57 67.62 175.50 73.05 C 176.44 78.51 178.23 83.77 179.65 89.12 C 190.12 89.57 200.58 92.25 209.79 97.30 C 225.13 106.12 238.26 119.31 245.49 135.59 C 252.40 150.71 253.86 167.93 251.11 184.22 C 247.22 205.38 235.04 224.65 218.48 238.23 C 199.70 253.61 175.19 261.10 151.07 260.88 C 128.43 260.88 106.00 252.76 88.33 238.66 C 64.67 220.01 49.44 191.05 47.76 160.95 C 46.28 139.90 51.66 118.51 62.47 100.43 C 74.88 79.51 94.59 62.99 117.44 54.62 C 121.38 53.32 125.93 53.37 129.59 55.45 C 135.30 58.44 137.69 66.55 134.14 72.03 C 132.22 75.50 128.71 77.73 125.04 78.99 C 106.27 86.22 90.47 100.74 81.61 118.79 C 74.31 133.27 71.77 149.99 74.08 166.01 C 77.01 187.07 88.56 206.76 105.48 219.64 C 118.97 229.98 135.98 235.87 153.02 235.39 C 172.57 235.33 192.54 228.49 206.65 214.67 C 216.80 204.62 224.38 191.46 226.03 177.11 C 228.41 161.62 224.26 145.07 213.85 133.19 C 206.61 125.12 197.57 118.01 186.81 115.50 C 189.34 123.24 191.66 131.05 193.86 138.89 C 196.91 150.48 197.03 163.44 191.14 174.19 C 184.85 186.30 172.57 195.11 159.04 197.01 C 146.24 199.24 132.54 194.80 123.29 185.71 C 114.38 177.26 109.27 165.13 108.84 152.91 C 107.95 141.32 110.38 129.38 116.46 119.40 C 124.56 105.73 138.63 96.29 153.77 92.04 C 151.87 83.74 148.17 75.62 148.77 66.94 M 135.71 138.80 C 132.93 148.68 133.82 160.98 141.93 168.17 C 149.50 175.06 162.66 172.26 167.66 163.62 C 170.79 158.79 170.85 152.70 169.72 147.24 C 166.93 136.90 163.72 126.67 160.44 116.47 C 149.57 119.87 138.98 127.39 135.71 138.80 Z"/>
</g>
<script xmlns="" type="text/javascript" id="useragent-switcher">navigator.__defineGetter__("userAgent", function() {return "Mozilla/5.0 (X11; Ubuntu; Linux x86_64; rv:59.0) Gecko/20100101 Firefox/59.0"})</script></svg>